HIERARCHY
ROOT RootJoint
{
    OFFSET   0.000000   0.000000   0.000000
    CHANNELS 6 Xposition Yposition Zposition Xrotation Yrotation Zrotation
    JOINT pelvis_lowerback
    {
        OFFSET   0.000000   0.093605   0.000000
        CHANNELS 3 Xrotation Yrotation Zrotation
        JOINT lowerback_torso
        {
            OFFSET   0.000000   0.100000   0.000000
            CHANNELS 3 Xrotation Yrotation Zrotation
            JOINT torso_head
            {
                OFFSET   0.000000   0.282350   0.000000
                CHANNELS 3 Xrotation Yrotation Zrotation
                End Site
                {
                    OFFSET   0.000000   0.192650   0.000000
                }
            }
            JOINT rTorso_Clavicle
            {
                OFFSET  -0.001000   0.157500   0.000000
                CHANNELS 3 Xrotation Yrotation Zrotation
                JOINT rShoulder
                {
                    OFFSET  -0.117647   0.000000   0.000000
                    CHANNELS 3 Xrotation Yrotation Zrotation
                    JOINT rElbow
                    {
                        OFFSET  -0.245000   0.000000   0.000000
                        CHANNELS 3 Xrotation Yrotation Zrotation
                        JOINT rWrist
                        {
                            OFFSET  -0.240000   0.000000   0.000000
                            CHANNELS 3 Xrotation Yrotation Zrotation
                            End Site
                            {
                                OFFSET  -0.116353  -0.002500   0.000000
                            }
                        }
                    }
                }
            }
            JOINT lTorso_Clavicle
            {
                OFFSET   0.001000   0.157500   0.000000
                CHANNELS 3 Xrotation Yrotation Zrotation
                JOINT lShoulder
                {
                    OFFSET   0.117647   0.000000   0.000000
                    CHANNELS 3 Xrotation Yrotation Zrotation
                    JOINT lElbow
                    {
                        OFFSET   0.245000   0.000000   0.000000
                        CHANNELS 3 Xrotation Yrotation Zrotation
                        JOINT lWrist
                        {
                            OFFSET   0.240000   0.000000   0.000000
                            CHANNELS 3 Xrotation Yrotation Zrotation
                            End Site
                            {
                                OFFSET   0.116353  -0.002500   0.000000
                            }
                        }
                    }
                }
            }
        }
    }
    JOINT rHip
    {
        OFFSET  -0.100000  -0.051395   0.000000
        CHANNELS 3 Xrotation Yrotation Zrotation
        JOINT rKnee
        {
            OFFSET   0.000000  -0.410000   0.000000
            CHANNELS 3 Xrotation Yrotation Zrotation
            JOINT rAnkle
            {
                OFFSET   0.000000  -0.390000   0.000000
                CHANNELS 3 Xrotation Yrotation Zrotation
                JOINT rToeJoint
                {
                    OFFSET   0.000000  -0.050000   0.130000
                    CHANNELS 3 Xrotation Yrotation Zrotation
                    End Site
                    {
                        OFFSET  -0.010000   0.002000   0.060000
                    }
                }
            }
        }
    }
    JOINT lHip
    {
        OFFSET   0.100000  -0.051395   0.000000
        CHANNELS 3 Xrotation Yrotation Zrotation
        JOINT lKnee
        {
            OFFSET   0.000000  -0.410000   0.000000
            CHANNELS 3 Xrotation Yrotation Zrotation
            JOINT lAnkle
            {
                OFFSET   0.000000  -0.390000   0.000000
                CHANNELS 3 Xrotation Yrotation Zrotation
                JOINT lToeJoint
                {
                    OFFSET   0.000000  -0.050000   0.130000
                    CHANNELS 3 Xrotation Yrotation Zrotation
                    End Site
                    {
                        OFFSET   0.010000   0.002000   0.060000
                    }
                }
            }
        }
    }
}
MOTION
Frames: 15
Frame Time:   0.016667
 -2.377261   0.922570   3.975538   0.160717   0.383574   0.075802  -0.989422   0.278849   0.086524   1.537343  -0.218352  -0.679688  -0.194363  -0.707900  -0.625546  -0.958014  -1.335931   0.616884   2.055739   0.778345   0.350728  -0.000002  -0.006360   0.000008  -1.096278   0.514210  -0.588303  -0.817260  -0.427379  -0.210202   0.407516   0.643594   0.537163   0.000233  -1.099562   0.000260  -0.446729  -0.022590   1.291429  -2.118768  -0.320550  -0.038212   4.269835  -0.000147   0.000375  -2.354152  -0.234836   0.134116   2.023421  -0.000269  -0.000309  -2.029408  -0.513310  -0.103128   3.894084  -0.000030  -0.000336  -2.406072   0.142871   0.390584  -0.425415   0.000138  -0.000011
 -2.377333   0.922262   3.976607   0.023442   0.312548   0.055083  -0.682323   0.303209   0.151874   1.069758  -0.084128  -0.633465  -0.203434  -0.715706  -0.534250  -0.825593  -1.596554   0.620768   1.878802   1.072588   0.228745  -0.000002  -0.004796   0.000007  -0.843944   0.550054  -0.286721  -0.665973  -0.191607  -0.330637   0.101965   0.437537   0.587308   0.000129  -1.445930  -0.000218  -0.322434  -0.030388   1.286554  -2.279652  -0.149871  -0.011233   5.049457  -0.000094   0.000475  -2.891078  -0.341327   0.223892   2.153435  -0.000231  -0.000234  -2.132889  -0.414893  -0.052500   4.544444  -0.000064  -0.000209  -2.607879   0.132259   0.140784   0.193437   0.000365   0.000034
 -2.377406   0.921954   3.977677  -0.113858   0.241572   0.034193  -0.375251   0.327920   0.217093   0.602065   0.049715  -0.586149  -0.212493  -0.723526  -0.442956  -0.693136  -1.857167   0.625256   1.702472   1.367206   0.107658  -0.000001  -0.003231   0.000007  -0.591800   0.587225   0.014702  -0.514191   0.043845  -0.451693  -0.203400   0.231216   0.636352   0.000022  -1.792297  -0.000697  -0.198139  -0.038197   1.281695  -2.440616   0.020731   0.016225   5.829078  -0.000040   0.000574  -3.427844  -0.448655   0.312668   2.283450  -0.000193  -0.000159  -2.236455  -0.316567  -0.001696   5.194805  -0.000097  -0.000082  -2.809730   0.122527  -0.109052   0.812290   0.000592   0.000077
 -2.377478   0.921646   3.978746  -0.251183   0.170646   0.013134  -0.068206   0.352979   0.282178   0.134260   0.183167  -0.537741  -0.221539  -0.731360  -0.351662  -0.560637  -2.117769   0.630347   1.526742   1.662194  -0.012538  -0.000001  -0.001667   0.000006  -0.339853   0.625722   0.315960  -0.361910   0.278976  -0.573374  -0.508585   0.024637   0.684295  -0.000088  -2.138665  -0.001176  -0.073845  -0.046017   1.276854  -2.601662   0.191256   0.044162   6.608700   0.000016   0.000673  -3.964452  -0.556809   0.400435   2.413464  -0.000155  -0.000084  -2.340108  -0.218333   0.049286   5.845165  -0.000128   0.000045  -3.011621   0.113675  -0.358920   1.431142   0.000820   0.000118
 -2.378350   0.921127   3.978864  -0.207256   0.328999  -0.026519  -0.149355   0.159373   0.238959   0.330861   0.355984  -0.561089  -0.106022  -1.076414  -0.098180  -0.180753  -1.950308   0.807992   1.008964   0.953866  -0.562771  -0.002016   1.451197  -0.000234  -0.216618   0.322974   0.234704  -0.378386   0.004614  -0.339165  -0.867771   0.246222   0.513862  -0.000109  -1.850966  -0.000759   0.335225  -0.031516   1.337398  -3.024745   0.178944   0.150568   7.420069  -0.000105   0.000820  -4.308145  -0.694606   0.348885   2.157539  -0.000097  -0.000049  -2.965857  -0.490034   0.132432   6.991904  -0.000322  -0.000263  -3.471280   0.284918  -0.368161   0.710517   0.000732  -0.000020
 -2.379222   0.920609   3.978981  -0.163219   0.487321  -0.066295  -0.230649  -0.034171   0.195465   0.527537   0.528720  -0.585029   0.011035  -1.420953   0.156030   0.198573  -1.781675   0.984504   0.484475   0.250570  -1.119310  -0.004026   2.904061  -0.000423  -0.093815   0.020052   0.154101  -0.393741  -0.269813  -0.105032  -1.226305   0.468870   0.344818  -0.000132  -1.563267  -0.000343   0.744280  -0.016584   1.397836  -3.447805   0.165846   0.256880   8.231439  -0.000225   0.000969  -4.651972  -0.832091   0.296508   1.901615  -0.000038  -0.000014  -3.591244  -0.762627   0.212610   8.138642  -0.000521  -0.000568  -3.930920   0.456230  -0.376029  -0.010109   0.000645  -0.000158
 -2.380094   0.920090   3.979099  -0.119070   0.645612  -0.106193  -0.312091  -0.227654   0.151697   0.724291   0.701373  -0.609564   0.129641  -1.764969   0.410986   0.577345  -1.611879   1.159881  -0.046832  -0.447568  -1.682276  -0.006035   4.356925  -0.000561   0.028563  -0.283042   0.074146  -0.407974  -0.544301   0.129036  -1.584195   0.692571   0.177164  -0.000157  -1.275568   0.000074   1.153318  -0.001220   1.458167  -3.870839   0.151964   0.363092   9.042808  -0.000342   0.001119  -4.995938  -0.969260   0.243304   1.645690   0.000020   0.000022  -4.216296  -1.036079   0.289813   9.285381  -0.000727  -0.000868  -4.390549   0.627599  -0.382522  -0.730734   0.000560  -0.000298
 -2.380882   0.919923   3.979961  -0.084159   0.821927  -0.082005  -0.106235  -0.350024  -0.115652   0.446927   0.616066  -0.489563   0.256385  -1.554797   0.232460   0.776876  -1.711781   1.289509  -0.425031  -0.222391  -1.940305  -0.004290   3.925978  -0.000693   0.147759   0.316151  -0.173251  -0.507007  -0.247457   0.169919  -1.125517   0.511053   0.611270   0.000149  -1.007939  -0.000153   0.600356   0.305633   1.209826  -3.986350  -0.138527   0.364824   9.379787  -0.000299   0.000756  -5.267538  -0.856249   0.287548   1.626390   0.000019   0.000016  -4.350936  -0.990094   0.327304   9.588860  -0.000577  -0.000482  -4.728866   0.717167  -0.344181  -0.485776   0.000365  -0.000033
 -2.381671   0.919757   3.980823  -0.049322   0.998256  -0.057923   0.099051  -0.473352  -0.382563   0.169746   0.530179  -0.369978   0.383772  -1.345021   0.053486   0.976643  -1.811230   1.419491  -0.802210   0.004483  -2.196839  -0.002546   3.495030  -0.000811   0.269554   0.914822  -0.421922  -0.606251   0.049316   0.211315  -0.665487   0.333022   1.046805   0.000455  -0.740309  -0.000382   0.048705   0.614866   0.964447  -4.101856  -0.429021   0.365970   9.716767  -0.000258   0.000393  -5.539218  -0.743449   0.332326   1.607089   0.000017   0.000011  -4.485604  -0.944197   0.364902   9.892338  -0.000426  -0.000097  -5.067250   0.806506  -0.305312  -0.240817   0.000171   0.000233
 -2.382459   0.919590   3.981685  -0.014556   1.174600  -0.033947   0.303764  -0.597635  -0.649036  -0.107252   0.443715  -0.250811   0.511803  -1.135644  -0.125940   1.176647  -1.910226   1.549826  -1.178372   0.233038  -2.451877  -0.000804   3.064083  -0.000916   0.393975   1.512957  -0.671921  -0.705711   0.346016   0.253225  -0.204124   0.158498   1.483749   0.000763  -0.472680  -0.000612  -0.501657   0.926444   0.722039  -4.217361  -0.719517   0.366530  10.053746  -0.000219   0.000030  -5.810979  -0.630863   0.377638   1.587789   0.000016   0.000005  -4.620301  -0.898388   0.402607  10.195817  -0.000272   0.000288  -5.405702   0.895615  -0.265914   0.004141  -0.000022   0.000500
 -2.381764   0.919530   3.982956  -0.075629   1.204619   0.019715   0.525678  -0.521281  -0.498166  -0.380801   0.299525  -0.054781   0.383801  -0.833664  -0.273994   1.159961  -1.833358   1.227402  -1.414458   0.364495  -2.041065  -0.000762   2.937839  -0.000801   0.824441   1.622646  -0.834592  -0.703033   0.552619  -0.085972  -0.479946  -0.073150   1.413740   0.000592  -0.761058  -0.000751  -0.290794   1.093282   1.042441  -4.098146  -0.544566   0.277059  10.151259  -0.000147   0.000069  -5.840052  -0.820245   0.427011   0.868361  -0.000004  -0.000005  -4.439756  -0.829036   0.304707  10.138389  -0.000217   0.000204  -5.480791   0.814490  -0.202070   0.606904  -0.000058   0.000402
 -2.381069   0.919471   3.984226  -0.136731   1.234581   0.073409   0.747388  -0.444343  -0.347594  -0.653852   0.154402   0.140557   0.256588  -0.531356  -0.421364   1.143708  -1.756397   0.905015  -1.651485   0.494255  -1.629708  -0.000720   2.811596  -0.000685   1.255240   1.731110  -0.998093  -0.699132   0.759202  -0.425192  -0.756054  -0.304458   1.342616   0.000420  -1.049437  -0.000890  -0.080855   1.261296   1.362246  -3.978660  -0.369801   0.187226  10.248773  -0.000075   0.000108  -5.868964  -1.009653   0.476291   0.148934  -0.000023  -0.000015  -4.259096  -0.759993   0.206590  10.080960  -0.000162   0.000120  -5.555788   0.733282  -0.138334   1.209668  -0.000094   0.000305
 -2.380374   0.919411   3.985497  -0.197861   1.264486   0.127136   0.968893  -0.366823  -0.197322  -0.926406   0.008351   0.335200   0.130158  -0.228722  -0.568057   1.127890  -1.679346   0.582662  -1.889442   0.622309  -1.217808  -0.000677   2.685352  -0.000570   1.686373   1.838342  -1.162414  -0.694007   0.965758  -0.764445  -1.032458  -0.535420   1.270376   0.000247  -1.337815  -0.001031   0.128158   1.430477   1.681455  -3.858903  -0.195225   0.097031  10.346286  -0.000003   0.000147  -5.897714  -1.199085   0.525478  -0.570494  -0.000043  -0.000026  -4.078321  -0.691259   0.108258  10.023532  -0.000107   0.000036  -5.630693   0.651991  -0.074705   1.812431  -0.000132   0.000208
 -2.380337   0.919257   3.986624  -0.032656   1.108503   0.080623   0.731057  -0.148466   0.027405  -0.892775  -0.375098   0.163183   0.262171  -0.006547  -0.461474   1.095682  -1.469240   0.859822  -1.757606   0.633121  -1.346225  -0.000378   3.086028  -0.000488   1.740209   1.788914  -1.427522  -0.514205   1.188570  -0.757829  -1.259807  -0.682090   1.003672  -0.000211  -0.772209  -0.000659   0.213148   0.902423   1.759012  -4.012929  -0.064153   0.160301  10.423269  -0.000005   0.000106  -5.956992  -1.178904   0.405368  -0.639586  -0.000048  -0.000020  -4.293965  -0.562234   0.163932  10.310690  -0.000090  -0.000006  -5.811548   0.817984  -0.046819   1.389990  -0.000059   0.000034
 -2.380299   0.919104   3.987750   0.132414   0.952386   0.034563   0.492368   0.068954   0.253036  -0.860292  -0.758647  -0.008620   0.393772   0.215873  -0.355403   1.062460  -1.259292   1.137075  -1.625746   0.643637  -1.474667  -0.000079   3.486703  -0.000409   1.793814   1.739238  -1.692577  -0.334413   1.411402  -0.751911  -1.487844  -0.827699   0.736379  -0.000673  -0.206604  -0.000283   0.298843   0.374484   1.837344  -4.167099   0.066748   0.223923  10.500253  -0.000008   0.000066  -6.016227  -1.158599   0.285279  -0.708677  -0.000053  -0.000013  -4.509730  -0.433419   0.220089  10.597848  -0.000073  -0.000048  -5.992492   0.983888  -0.018407   0.967549   0.000016  -0.000139
